<?xml version="1.0" encoding="UTF-8"?>
<svg version="1.1" xmlns="http://www.w3.org/2000/svg" width="654" height="655">
<path d="M0 0 C2.08719112 0.00318132 4.17299126 -0.02041502 6.26000977 -0.0456543 C7.57678711 -0.04629883 8.89356445 -0.04694336 10.25024414 -0.04760742 C11.45318115 -0.05058838 12.65611816 -0.05356934 13.89550781 -0.05664062 C17.16762052 0.34954349 17.9154968 0.80161748 19.89477539 3.31567383 C24.96585162 5.60682273 30.51768661 6.77626859 35.94946289 7.88598633 C37.89477539 8.31567383 37.89477539 8.31567383 40.89477539 9.31567383 C43.42446397 9.36079648 45.92956816 9.36350178 48.45727539 9.31567383 C55.62505644 9.18081435 55.62505644 9.18081435 57.89477539 10.31567383 C61.837895 10.44711115 65.31834234 10.41355869 69.20727539 9.75317383 C71.89477539 9.31567383 71.89477539 9.31567383 74.89477539 10.31567383 C78.1243607 10.38466363 81.34099551 10.3131889 84.57055664 10.25317383 C87.78404319 10.31359191 90.74399885 10.70553858 93.89477539 11.31567383 C94.18352539 10.22254883 94.47227539 9.12942383 94.76977539 8.00317383 C95.89477539 4.31567383 95.89477539 4.31567383 97.89477539 1.31567383 C98.55477539 0.98567383 99.21477539 0.65567383 99.89477539 0.31567383 C103.31070419 2.02363823 104.67188821 5.90556142 106.45727539 9.19067383 C108.63278466 11.53473937 108.63278466 11.53473937 111.09399414 11.40551758 C112.8335346 11.21637918 114.56865627 10.98258435 116.29711914 10.71020508 C118.66723285 10.35023292 120.81738223 10.25672011 123.20727539 10.31567383 C126.33362026 10.31567383 128.86296637 9.92203563 131.89477539 9.31567383 C132.88477539 9.64567383 133.87477539 9.97567383 134.89477539 10.31567383 C139.5422229 10.50157173 143.97083679 10.10499603 148.56665039 9.52661133 C150.91789962 9.31357868 153.16236875 9.35247154 155.51977539 9.44067383 C159.90600198 9.50897147 162.88429795 8.10606554 166.89477539 6.31567383 C169.1930065 5.92806756 171.45804671 5.69994133 173.78149414 5.52661133 C175.90018437 5.31513393 177.84467694 4.88026076 179.89477539 4.31567383 C179.89477539 3.65567383 179.89477539 2.99567383 179.89477539 2.31567383 C184.60025439 -0.82131217 189.58973141 -0.01823596 195.12670898 0 C197.12367205 0.00314064 199.12061693 -0.02111134 201.11743164 -0.0456543 C211.85102059 -0.05109178 218.94101531 1.86215023 226.89477539 9.31567383 C232.73097357 16.79465372 233.11945346 23.19009711 233.20727539 32.44067383 C233.2362793 33.43583008 233.2652832 34.43098633 233.29516602 35.45629883 C233.36425486 43.59815298 231.95885455 50.4510176 226.81665039 56.93676758 C226.09993164 57.53618164 225.38321289 58.1355957 224.64477539 58.75317383 C223.93836914 59.37063477 223.23196289 59.9880957 222.50415039 60.62426758 C213.84888826 66.23463959 205.30879074 65.67616861 195.39477539 65.50317383 C193.88958042 65.48810243 192.38437088 65.47441836 190.87915039 65.4621582 C187.21738598 65.4293407 183.55617518 65.37769372 179.89477539 65.31567383 C179.56477539 65.97567383 179.23477539 66.63567383 178.89477539 67.31567383 C179.88477539 67.64567383 180.87477539 67.97567383 181.89477539 68.31567383 C181.89477539 68.97567383 181.89477539 69.63567383 181.89477539 70.31567383 C182.48194336 70.57977051 183.06911133 70.84386719 183.67407227 71.1159668 C187.51375109 73.19030516 190.32634464 76.3782012 193.39477539 79.44067383 C194.05864258 80.08004883 194.72250977 80.71942383 195.40649414 81.37817383 C201.77817874 87.71170462 205.74267767 94.10531209 205.89477539 103.31567383 C205.90697481 110.84271445 204.00359363 116.03873379 199.89477539 122.31567383 C199.23477539 122.31567383 198.57477539 122.31567383 197.89477539 122.31567383 C197.66145508 122.88157227 197.42813477 123.4474707 197.18774414 124.03051758 C193.38937184 130.74365292 186.17774255 136.03082139 178.89477539 138.31567383 C171.37267037 140.38425271 163.92090463 139.60652653 156.89477539 136.31567383 C153.21762938 133.64735521 150.09135215 130.53508328 146.89477539 127.31567383 C145.73444073 126.17780808 144.57291732 125.04115368 143.41040039 123.90551758 C134.12164114 114.76940533 134.12164114 114.76940533 132.89477539 112.31567383 C132.90001221 112.91927734 132.90524902 113.52288086 132.91064453 114.14477539 C133.17236546 148.90396444 133.17236546 148.90396444 125.35961914 158.12817383 C123.63115323 159.76265696 121.90111067 161.03927763 119.89477539 162.31567383 C118.93764648 162.93442383 118.93764648 162.93442383 117.96118164 163.56567383 C111.98307648 166.6346476 105.91340534 166.69929591 99.33227539 166.75317383 C98.00268799 166.76840088 98.00268799 166.76840088 96.64624023 166.78393555 C89.86875327 166.6946091 83.97150236 165.35403731 77.89477539 162.31567383 C77.89477539 161.65567383 77.89477539 160.99567383 77.89477539 160.31567383 C77.30051758 160.07461914 76.70625977 159.83356445 76.09399414 159.58520508 C73.45876177 158.06397858 72.3656083 156.53969846 70.70727539 154.00317383 C70.1980957 153.24391602 69.68891602 152.4846582 69.16430664 151.70239258 C66.71622806 147.10000484 66.76674344 142.50534997 66.76196289 137.37036133 C66.76100616 136.71866974 66.76004944 136.06697815 66.75906372 135.39553833 C66.75838642 134.02565412 66.76020915 132.65576662 66.7644043 131.28588867 C66.76977641 129.19027529 66.76443521 127.09487451 66.75805664 124.99926758 C66.75871716 123.66463169 66.75999779 122.32999593 66.76196289 120.99536133 C66.76309082 119.78605957 66.76421875 118.57675781 66.76538086 117.33081055 C66.89477539 114.31567383 66.89477539 114.31567383 67.89477539 111.31567383 C64.80950495 114.37621264 61.76984386 117.47539851 58.75024414 120.60083008 C57.19450186 122.19351959 55.63850578 123.78596124 54.08227539 125.37817383 C53.31334961 126.18061523 52.54442383 126.98305664 51.75219727 127.80981445 C44.68540354 134.99587896 38.34792335 138.88546396 28.14477539 139.56567383 C20.97549468 139.45745827 14.44873888 136.78299229 8.89477539 132.31567383 C6.43831986 129.74705138 4.16925883 127.04505396 1.89477539 124.31567383 C1.33145508 123.68918945 0.76813477 123.06270508 0.18774414 122.41723633 C-5.83691488 115.70362604 -7.48664853 108.91427879 -7.04272461 99.94067383 C-5.59440823 90.13566082 1.72568772 82.90604369 8.58227539 76.31567383 C9.72019531 75.19225586 9.72019531 75.19225586 10.88110352 74.04614258 C13.79707154 71.18936896 16.49008013 68.58547067 19.89477539 66.31567383 C18.93700195 66.30109131 17.97922852 66.28650879 16.99243164 66.27148438 C13.40629528 66.2130902 9.82076013 66.13586399 6.23510742 66.05322266 C4.68930896 66.02016521 3.14339535 65.9920748 1.59741211 65.96923828 C-9.61521827 65.79913059 -18.59378408 65.63797124 -27.10522461 57.31567383 C-33.51219598 49.73734481 -34.46776333 42.72920345 -34.48022461 33.00317383 C-34.5047168 32.00866211 -34.52920898 31.01415039 -34.55444336 29.98950195 C-34.58919347 21.16876609 -32.37127861 13.76075795 -26.10522461 7.31567383 C-18.020241 0.5353575 -10.25643846 -0.03281477 0 0 Z " fill="#0A67A4" transform="translate(227.105224609375,295.684326171875)"/>
<path d="M0 0 C0.87269531 -0.01224609 1.74539063 -0.02449219 2.64453125 -0.03710938 C11.72275332 -0.05758657 18.49926996 1.83001814 25.125 8.1875 C30.2463042 14.68335338 32.25166119 19.65008093 32.44140625 27.91796875 C32.46218735 28.66838943 32.48296844 29.41881012 32.50437927 30.19197083 C32.56969926 32.58622184 32.62867792 34.98058139 32.6875 37.375 C32.73070193 38.99936013 32.77431676 40.62370933 32.81835938 42.24804688 C32.92536263 46.22775371 33.02667937 50.20756958 33.125 54.1875 C34.39001768 52.93952087 35.65254934 51.68902154 36.9140625 50.4375 C37.96907959 49.39335937 37.96907959 49.39335937 39.04541016 48.328125 C40.96818611 46.34891631 42.74294912 44.31346135 44.5 42.1875 C45.36625 41.1975 46.2325 40.2075 47.125 39.1875 C47.785 39.1875 48.445 39.1875 49.125 39.1875 C49.125 38.5275 49.125 37.8675 49.125 37.1875 C49.785 37.1875 50.445 37.1875 51.125 37.1875 C51.125 36.5275 51.125 35.8675 51.125 35.1875 C57.59744786 29.78645507 64.46101998 26.67263311 73.01953125 26.9375 C80.1056665 27.77889639 85.68876776 30.67658389 91.125 35.1875 C91.125 35.8475 91.125 36.5075 91.125 37.1875 C91.785 37.1875 92.445 37.1875 93.125 37.1875 C93.125 37.8475 93.125 38.5075 93.125 39.1875 C94.115 39.5175 95.105 39.8475 96.125 40.1875 C96.125 40.8475 96.125 41.5075 96.125 42.1875 C96.785 42.1875 97.445 42.1875 98.125 42.1875 C105.11478977 50.39290538 106.51692243 57.57840182 105.8046875 68.0625 C103.73609666 77.57326249 97.78483247 83.05609219 91 89.625 C90.08089844 90.53443359 89.16179687 91.44386719 88.21484375 92.38085938 C80.34049072 100.12223875 80.34049072 100.12223875 76.796875 100.3125 C61.36873707 99.65247271 49.07560584 90.54538509 38.69921875 79.7578125 C36.97504786 77.97668842 36.97504786 77.97668842 34.1875 75.875 C33.506875 75.318125 32.82625 74.76125 32.125 74.1875 C32.125 73.5275 32.125 72.8675 32.125 72.1875 C28.54972257 71.35690614 28.54972257 71.35690614 25.125 72.1875 C22.77752289 74.80064707 20.91584242 77.53374349 19.01953125 80.48828125 C15.37131201 85.68605341 10.57224479 87.79134671 4.63671875 89.71875 C-2.00463985 90.60524948 -7.95902734 88.14548633 -13.875 85.1875 C-16.93915961 82.62166393 -18.76148396 79.87527349 -20.75 76.4375 C-23.01517469 72.91675975 -23.01517469 72.91675975 -26.75 71.1875 C-30.79818418 72.48291894 -33.12930008 74.71495589 -36.140625 77.65625 C-37.875 79.1875 -37.875 79.1875 -39.875 79.1875 C-40.37 80.6725 -40.37 80.6725 -40.875 82.1875 C-41.535 82.1875 -42.195 82.1875 -42.875 82.1875 C-42.875 82.8475 -42.875 83.5075 -42.875 84.1875 C-44.3359375 85.4765625 -44.3359375 85.4765625 -46.25 86.8125 C-46.87648438 87.25851562 -47.50296875 87.70453125 -48.1484375 88.1640625 C-49.875 89.1875 -49.875 89.1875 -51.875 89.1875 C-51.875 89.8475 -51.875 90.5075 -51.875 91.1875 C-54.05876766 92.32027268 -56.24657128 93.44372789 -58.4375 94.5625 C-59.04658203 94.87960937 -59.65566406 95.19671875 -60.28320312 95.5234375 C-66.4428722 98.6521583 -72.89417864 101.28973495 -79.875 100.1875 C-82.93347319 98.26154349 -85.33216367 95.73868719 -87.875 93.1875 C-88.94748125 92.17134013 -90.02183827 91.15715783 -91.09765625 90.14453125 C-105.94638493 76.00889494 -105.94638493 76.00889494 -106.34448242 64.43823242 C-106.42694815 57.84955044 -106.375883 53.02540862 -102.875 47.1875 C-102.215 47.1875 -101.555 47.1875 -100.875 47.1875 C-100.54435547 46.36958984 -100.54435547 46.36958984 -100.20703125 45.53515625 C-98.44732243 42.43373396 -96.08258295 40.10492227 -93.5625 37.625 C-93.08876953 37.14353516 -92.61503906 36.66207031 -92.12695312 36.16601562 C-86.13412592 30.20598091 -79.94866757 27.19728173 -71.4375 26.875 C-59.34375282 27.18351396 -51.5335307 35.20209341 -43.5 43.3125 C-42.66855469 44.13621094 -41.83710938 44.95992187 -40.98046875 45.80859375 C-40.19542969 46.59621094 -39.41039062 47.38382813 -38.6015625 48.1953125 C-37.88564941 48.91348145 -37.16973633 49.63165039 -36.43212891 50.37158203 C-34.875 52.1875 -34.875 52.1875 -34.875 54.1875 C-33.885 54.1875 -32.895 54.1875 -31.875 54.1875 C-32.205 53.5275 -32.535 52.8675 -32.875 52.1875 C-33.1109114 48.03224242 -33.10347476 43.87505552 -33.11523438 39.71362305 C-33.12485055 37.6569636 -33.15582849 35.60134284 -33.1875 33.54492188 C-33.22076434 25.05835703 -32.78725007 17.96359012 -28.3125 10.625 C-27.838125 10.150625 -27.36375 9.67625 -26.875 9.1875 C-26.215 9.1875 -25.555 9.1875 -24.875 9.1875 C-24.875 8.5275 -24.875 7.8675 -24.875 7.1875 C-22.86328125 5.71484375 -22.86328125 5.71484375 -20.1875 4.125 C-19.31738281 3.59777344 -18.44726562 3.07054687 -17.55078125 2.52734375 C-11.91027636 -0.29702585 -6.18089119 0.00452481 0 0 Z " fill="#0D69A5" transform="translate(326.875,194.8125)"/>
<path d="M0 0 C4.43460683 1.47820228 5.39249955 4.88219917 7.5625 8.875 C9.73800926 11.21906555 9.73800926 11.21906555 12.19921875 11.08984375 C13.93875921 10.90070535 15.67388088 10.66691052 17.40234375 10.39453125 C19.77245746 10.03455909 21.92260684 9.94104628 24.3125 10 C27.43884487 10 29.96819098 9.6063618 33 9 C33.99 9.33 34.98 9.66 36 10 C39.79165541 10.15166622 43.43230036 9.9770671 47.1875 9.5 C52.78592048 8.81230475 58.36861781 8.91424291 64 9 C61.22109183 11.77890817 59.33184535 11.40199401 55.4375 11.625 C54.78362305 11.66367187 54.12974609 11.70234375 53.45605469 11.7421875 C47.48806707 12.0576262 41.52295169 12.06276397 35.54858398 11.96337891 C32.40475601 11.92396486 30.00946601 11.99684466 27 13 C25.0625 13.1328125 25.0625 13.1328125 23 13.125 C21.9790625 13.12886719 21.9790625 13.12886719 20.9375 13.1328125 C19 13 19 13 16 12 C13.69 12.33 11.38 12.66 9 13 C9 22.9 9 32.8 9 43 C12.465 42.505 12.465 42.505 16 42 C16 41.34 16 40.68 16 40 C16.63502441 39.83395264 17.27004883 39.66790527 17.92431641 39.49682617 C20.8263842 38.73386233 23.72566426 37.96077807 26.625 37.1875 C27.62402344 36.92646484 28.62304688 36.66542969 29.65234375 36.39648438 C34.76751726 35.02453386 39.31264709 33.52570958 44 31 C44.66 31 45.32 31 46 31 C45.505 30.01 45.505 30.01 45 29 C38.23289537 27.61000013 31.27052494 27.64809573 24.38671875 27.39453125 C23.48050781 27.35714844 22.57429688 27.31976563 21.640625 27.28125 C20.82110352 27.25095703 20.00158203 27.22066406 19.15722656 27.18945312 C17 27 17 27 14 26 C13.875 23.125 13.875 23.125 14 20 C16.68731797 17.31268203 18.06777174 17.74228818 21.8203125 17.734375 C22.9959375 17.73179687 24.1715625 17.72921875 25.3828125 17.7265625 C26.61773437 17.73429687 27.85265625 17.74203125 29.125 17.75 C30.33671875 17.74226563 31.5484375 17.73453125 32.796875 17.7265625 C41.24610221 17.7449704 48.19938746 18.58723201 56 22 C56 22.66 56 23.32 56 24 C56.639375 24.309375 57.27875 24.61875 57.9375 24.9375 C60 26 60 26 61 27 C61.56458522 31.04619408 61.21570284 32.67317751 58.9375 36.125 C53.1580908 43.01358874 43.95423984 44.63218759 35.6875 46.75 C34.49576172 47.06582031 33.30402344 47.38164062 32.07617188 47.70703125 C23.33608969 50 23.33608969 50 21 50 C21 50.66 21 51.32 21 52 C21.60199219 52.23589844 22.20398438 52.47179687 22.82421875 52.71484375 C26.96552316 55.16096431 28.48846826 59.59189281 30 64 C30.6185415 68.32979048 29.97943698 71.48433495 27.6015625 75.1640625 C23.94896389 79.5769305 19.83951896 82.96343908 15 86 C14.34 86 13.68 86 13 86 C14.98559793 88.64746391 16.80538186 90.85029374 19.4375 92.875 C23.93902288 96.60797019 27.03707003 100.54140379 28.1875 106.375 C28.59451267 112.82120072 24.54848556 117.04513431 20.5546875 121.67578125 C19.25 123.0625 19.25 123.0625 17 125 C16.34 125 15.68 125 15 125 C15 125.66 15 126.32 15 127 C13.02 127.99 13.02 127.99 11 129 C12.03841619 126.33814442 13.12587999 123.72744568 14.32421875 121.1328125 C18.0692697 113.30651802 18.0692697 113.30651802 17 105 C15.5292236 103.02818988 13.99225953 101.24380568 12.27734375 99.48046875 C11 98 11 98 11 96 C10.34 96 9.68 96 9 96 C9.0314209 97.09671021 9.0314209 97.09671021 9.06347656 98.21557617 C9.14680314 101.53941001 9.19871332 104.86302384 9.25 108.1875 C9.28351563 109.33798828 9.31703125 110.48847656 9.3515625 111.67382812 C9.37089844 113.34155273 9.37089844 113.34155273 9.390625 115.04296875 C9.4220459 116.57473755 9.4220459 116.57473755 9.45410156 118.13745117 C8.87540869 121.78539416 7.61244224 123.42962841 5 126 C1.4375 126.5625 1.4375 126.5625 -2 126 C-5.10184261 122.92380733 -5.40277126 120.4113668 -5.51171875 116.140625 C-5.54716797 115.02558594 -5.58261719 113.91054688 -5.61914062 112.76171875 C-5.65297852 111.02341797 -5.65297852 111.02341797 -5.6875 109.25 C-5.72166016 108.07566406 -5.75582031 106.90132813 -5.79101562 105.69140625 C-5.87345173 102.79436611 -5.94261811 99.89762702 -6 97 C-6.98169476 98.12279462 -7.96027298 99.24831473 -8.9375 100.375 C-9.48277344 101.00148438 -10.02804687 101.62796875 -10.58984375 102.2734375 C-13.20809638 105.4791651 -13.37777042 108.23091984 -13.37109375 112.34375 C-12.78581338 116.5331253 -10.92963067 119.98924823 -8.99609375 123.71484375 C-8.66738281 124.46894531 -8.33867187 125.22304688 -8 126 C-8.33 126.66 -8.66 127.32 -9 128 C-23.41622517 115.96208609 -23.41622517 115.96208609 -24.375 107.8125 C-23.55779647 99.50426413 -18.05565065 94.78797455 -11.890625 89.6640625 C-9.90797715 88.12922972 -9.90797715 88.12922972 -9 86 C-9.61875 85.855625 -10.2375 85.71125 -10.875 85.5625 C-13 85 -13 85 -15 84 C-15 83.34 -15 82.68 -15 82 C-15.59425781 81.7421875 -16.18851562 81.484375 -16.80078125 81.21875 C-19.177507 79.90163023 -20.46785573 78.58656066 -22.1875 76.5 C-22.69667969 75.8915625 -23.20585937 75.283125 -23.73046875 74.65625 C-26.51529865 71.02311808 -26.56730558 67.42187499 -26 63 C-24.21886795 57.97037842 -21.37168434 54.1012715 -18 50 C-18.81452637 49.85751831 -18.81452637 49.85751831 -19.64550781 49.7121582 C-49.28602418 44.42816856 -49.28602418 44.42816856 -56.875 34.5625 C-58 32 -58 32 -58 29.5 C-56.11398351 24.78495879 -53.00517366 22.51172477 -48.5625 20.25 C-41.06255021 17.61843867 -33.67108174 17.81680607 -25.8125 17.8125 C-24.62462891 17.80025391 -23.43675781 17.78800781 -22.21289062 17.77539062 C-21.07658203 17.77345703 -19.94027344 17.77152344 -18.76953125 17.76953125 C-17.73417236 17.76542236 -16.69881348 17.76131348 -15.63208008 17.75708008 C-13 18 -13 18 -10 20 C-9.6875 22.5 -9.6875 22.5 -10 25 C-12.52922224 27.52922224 -13.50837037 27.28285516 -17.015625 27.37890625 C-18.52189453 27.43014648 -18.52189453 27.43014648 -20.05859375 27.48242188 C-21.11175781 27.50884766 -22.16492188 27.53527344 -23.25 27.5625 C-32.17562314 27.75516525 -32.17562314 27.75516525 -41 29 C-41.33 29.99 -41.66 30.98 -42 32 C-40.845 32.268125 -39.69 32.53625 -38.5 32.8125 C-35.59222422 33.53305604 -32.84647762 34.39649177 -30.0625 35.5 C-25.76911726 37.1673331 -21.51129643 38.05025338 -17 39 C-13.04 39.99 -9.08 40.98 -5 42 C-5 32.76 -5 23.52 -5 14 C-6.65 14 -8.3 14 -10 14 C-10 13.34 -10 12.68 -10 12 C-11.32 11.34 -12.64 10.68 -14 10 C-11.03 10.33 -8.06 10.66 -5 11 C-4.566875 9.3603125 -4.566875 9.3603125 -4.125 7.6875 C-3.16154281 4.52950144 -2.36196677 2.36196677 0 0 Z " fill="#F6F9FB" transform="translate(326,296)"/>
<path d="M0 0 C0 0.66 0 1.32 0 2 C0.598125 2.061875 1.19625 2.12375 1.8125 2.1875 C4 3 4 3 5.75 5 C7.45385829 9.08925989 7.72829353 12.6302388 7 17 C5.89195513 19.35039822 4.6658087 20.96979564 3 23 C5.31 22.34 7.62 21.68 10 21 C5.48183167 25.98374071 0.67171388 28.17624 -6 29 C-13.11774558 28.07545613 -20.2515064 25.50825258 -25 20 C-24.67 19.34 -24.34 18.68 -24 18 C-23.67 18.99 -23.34 19.98 -23 21 C-20.89415562 21.80563638 -20.89415562 21.80563638 -18.4375 22.1875 C-17.19806641 22.42533203 -17.19806641 22.42533203 -15.93359375 22.66796875 C-14.97646484 22.83232422 -14.97646484 22.83232422 -14 23 C-14.639375 22.566875 -15.27875 22.13375 -15.9375 21.6875 C-18.48460699 19.60350337 -18.86600168 17.97021566 -19.30859375 14.765625 C-19.55939061 9.8712862 -19.40811261 6.78788587 -16.1875 2.9375 C-11.70178403 -1.76973281 -6.03067561 -2.0102252 0 0 Z " fill="#F6F9FB" transform="translate(334,256)"/>
<path d="M0 0 C5.16607578 1.29151895 7.22066934 3.55661149 10 8 C10.875 11.5 10.875 11.5 10 15 C7.61939411 17.73984147 5.02852393 19.99922816 2 22 C1.34 22 0.68 22 0 22 C0 14.74 0 7.48 0 0 Z " fill="#166FA9" transform="translate(335,352)"/>
<path d="M0 0 C0 7.26 0 14.52 0 22 C-4.99301258 20.00279497 -6.28369002 19.36549818 -9 15 C-10.0625 11.5625 -10.0625 11.5625 -10 8 C-7.93312504 4.30493375 -4.49150819 0 0 0 Z " fill="#0D69A5" transform="translate(321,352)"/>
<path d="M0 0 C0.61746094 0.19335938 1.23492187 0.38671875 1.87109375 0.5859375 C6.91120192 2.1355598 11.92566649 3.50186203 17.08984375 4.5703125 C19 5 19 5 22 6 C24.52968858 6.04512265 27.03479277 6.04782795 29.5625 6 C36.73028105 5.86514053 36.73028105 5.86514053 39 7 C42.80278656 7.12675955 46.13235124 7.171402 49.8671875 6.43359375 C53.31594361 5.95627214 55.96401249 6.29320236 59.375 6.9375 C60.43460937 7.13214844 61.49421875 7.32679688 62.5859375 7.52734375 C63.78089844 7.76130859 63.78089844 7.76130859 65 8 C63 10 63 10 61.046875 10.01171875 C60.28890625 9.90472656 59.5309375 9.79773438 58.75 9.6875 C57.95207031 9.57921875 57.15414062 9.4709375 56.33203125 9.359375 C53.54983364 8.93062763 50.77086445 8.49733464 48 8 C48 8.66 48 9.32 48 10 C46.43759968 10.02730408 44.8750573 10.04653226 43.3125 10.0625 C42.44238281 10.07410156 41.57226562 10.08570313 40.67578125 10.09765625 C38 10 38 10 35.54296875 9.48828125 C31.66791009 8.74422237 27.86430587 9.08751735 23.9375 9.2578125 C20.52317782 8.95815124 18.87092315 7.79720711 16 6 C13.54429139 5.54245752 13.54429139 5.54245752 11.0625 5.5 C6.76184545 5.19786134 3.74107256 4.26433339 0 2 C0 1.34 0 0.68 0 0 Z " fill="#D3E3EE" transform="translate(246,299)"/>
<path d="M0 0 C3.79327841 0.14875602 7.43075636 -0.02360135 11.1875 -0.5 C16.78592048 -1.18769525 22.36861781 -1.08575709 28 -1 C25.22109183 1.77890817 23.33184535 1.40199401 19.4375 1.625 C18.78362305 1.66367187 18.12974609 1.70234375 17.45605469 1.7421875 C11.48806707 2.0576262 5.52295169 2.06276397 -0.45141602 1.96337891 C-3.59524399 1.92396486 -5.99053399 1.99684466 -9 3 C-17.2173913 3.26086957 -17.2173913 3.26086957 -21 2 C-21 1.34 -21 0.68 -21 0 C-20.10796875 0.01160156 -19.2159375 0.02320313 -18.296875 0.03515625 C-16.54117187 0.04869141 -16.54117187 0.04869141 -14.75 0.0625 C-13.00976562 0.07990234 -13.00976562 0.07990234 -11.234375 0.09765625 C-0.84063889 -0.21616428 -0.84063889 -0.21616428 0 0 Z " fill="#DBE9F1" transform="translate(362,306)"/>
<path d="M0 0 C0.66 0.33 1.32 0.66 2 1 C-2.16048113 5.84979161 -6.31778162 10.64444802 -11 15 C-11.66 15 -12.32 15 -13 15 C-11.38989473 10.92623969 -8.46177729 8.23492931 -5.375 5.25 C-4.859375 4.74339844 -4.34375 4.23679688 -3.8125 3.71484375 C-2.54616661 2.47196098 -1.2736856 1.23534724 0 0 Z " fill="#7BADCE" transform="translate(239,227)"/>
<path d="M0 0 C5.75 -0.125 5.75 -0.125 8 1 C8 1.66 8 2.32 8 3 C10.97 3 13.94 3 17 3 C17 3.33 17 3.66 17 4 C15.43759968 4.02730408 13.8750573 4.04653226 12.3125 4.0625 C11.44238281 4.07410156 10.57226562 4.08570313 9.67578125 4.09765625 C7 4 7 4 4.5625 3.5 C1.55370776 2.91291859 -1.24950014 2.90384066 -4.3125 2.9375 C-5.91544922 2.95103516 -5.91544922 2.95103516 -7.55078125 2.96484375 C-8.35902344 2.97644531 -9.16726563 2.98804688 -10 3 C-10 2.67 -10 2.34 -10 2 C-6.7 2 -3.4 2 0 2 C0 1.34 0 0.68 0 0 Z " fill="#80B0D0" transform="translate(277,305)"/>
<path d="M0 0 C1.20366211 0.00483398 1.20366211 0.00483398 2.43164062 0.00976562 C3.68170898 0.02233398 3.68170898 0.02233398 4.95703125 0.03515625 C5.80201172 0.03966797 6.64699219 0.04417969 7.51757812 0.04882812 C9.6015928 0.06060222 11.68557102 0.07853735 13.76953125 0.09765625 C11.37266475 2.49452275 10.69924811 2.38046758 7.41796875 2.51171875 C6.5671875 2.55039062 5.71640625 2.5890625 4.83984375 2.62890625 C3.95039063 2.65984375 3.0609375 2.69078125 2.14453125 2.72265625 C0.79875 2.78066406 0.79875 2.78066406 -0.57421875 2.83984375 C-2.79276145 2.93424982 -5.01129278 3.01982373 -7.23046875 3.09765625 C-7.23046875 2.43765625 -7.23046875 1.77765625 -7.23046875 1.09765625 C-4.46481493 0.17577164 -2.84763173 -0.02019597 0 0 Z " fill="#C8DDEB" transform="translate(376.23046875,304.90234375)"/>
</svg>
